<svg id="i-clipboard-details" xmlns="http://www.w3.org/2000/svg" viewBox="0 0 24 24">
<path d="M20.25 2.625h-2.625v1.5h2.25V21.75H4.125V4.125h2.25v-1.5H3.75c-.621.001-1.124.504-1.125 1.125v18.375c.001.621.504 1.124 1.125 1.125h16.5c.621-.001 1.124-.504 1.125-1.125V3.75c-.001-.621-.504-1.124-1.125-1.125h0zM9 6.563h6c.621-.001 1.124-.504 1.125-1.125V.75h-8.25v4.688c.001.621.504 1.124 1.125 1.125h0zm.375-4.313h5.25v2.813h-5.25z"/>
<path d="M5.871 9.393h12.3V11h-12.3zm0 3.607h12.3v1.607h-12.3zm0 3.607h12.3v1.607h-12.3z"/>
</svg>