<svg id="i-generate-table" version="1.0" xmlns="http://www.w3.org/2000/svg" viewBox="0 0 512 512">
<path d="M335.8 39c-104.9.5-105.7.5-108.5 2.6-5.2 3.8-6.3 7.5-6.3 22.1v13.2l-5.2 1c-2.9.6-20.9 4.2-39.9 7.9-20.8 4.1-35.7 7.5-37.3 8.5-3.5 2.4-5.7 5.9-6.3 10.4-.3 2.6 5.5 34.2 17.8 96.3l18.3 92.5V309l.1 15.5-10.5.3c-34.6 1-70-13.7-93.7-39.1-11.9-12.7-19.6-26.4-26.2-46.2l-3.9-11.9-1.6 3.8c-.9 2.1-1.6 4.2-1.6 4.6 0 .4-1.1 4.2-2.6 8.4-3.3 9.8-6.2 27.5-6.2 37.4 0 9.8 3.1 27.5 6.5 37.2 14.4 41.3 48.8 71.7 94.8 83.6 7.8 2.1 13 2.7 28 3.2l17 .7.5 23.3.5 23.4 3.4 3c5.8 5.2 9 4 28.5-10.2 9.1-6.6 17-12 17.5-12s1.9 1.4 3.1 3c1.2 1.7 2.9 3 3.9 3 .9 0 51-9.7 111.2-21.7l109.4-21.6 27-.6c26.4-.6 27.1-.6 30.4-3 6.5-4.7 6.1 4.6 6.1-147.8l-.1-138.8-7.2-7.5c-4-4.1-19.4-19.4-34.2-34l-27-26.5-105.7.5zM441 69.5V93h-15.4c-11.9 0-15.6.3-16.5 1.4-.8.9-1.1 5.7-.9 14.7l.3 13.4 17.9.3c12.3.2 18.3-.1 19.2-.9.9-.8 1.4-3.4 1.4-7.9v-6.8l3.8 1c2.4.7 12 .8 28 .4l24.2-.7v137.9c0 134.4-.1 138-1.9 140.3l-1.9 2.4-108.4.2-108.3.2 3.5-2.7c10.6-8.3 13.6-11 14.5-13l1-2.2h182.4l2-2.6c2.1-2.7 2.1-2.9 2.1-115V141.1l-2.9-2c-2.9-2.1-3.2-2.1-118.4-2.1-115.3 0-115.4 0-118.1 2.1l-2.6 2v88.6c0 79.9-.2 88.5-1.6 87.9-.8-.3-4.9-3-8.9-5.8l-7.5-5.3V180c0-99.5.3-127 1.3-129 2.6-5.1-1-5 109-5H441v23.5zm43 20.9c2.9 2.8 6.9 6.6 8.7 8.3l3.4 3.3h-20.7c-19.2 0-20.9-.1-24-2.1l-3.4-2.1V54.3l15.3 15.5c8.3 8.5 17.7 17.8 20.7 20.6zm-263 18c0 13.1-.4 23.7-.9 24-.5.4-3 .8-5.5 1.1-2.5.2-6 1.2-7.7 2-3 1.6-3.1 1.8-2.4 6.3 1 7.4 4.4 20.4 5.7 21.9 1.1 1.3 5.3 1.2 9.1-.3 1.5-.5 1.7.3 1.7 6.6 0 4.7-.4 6.9-1 6.5-.6-.4-1.6-.2-2.3.3-.7.6-7.5 2.3-15.2 3.7-20.1 3.9-21.5 4.3-24.7 7.6-2.5 2.5-2.9 3.5-2.7 7.9.2 2.8.9 7.9 1.6 11.3.8 3.4 1.6 7.3 1.8 8.7.2 1.4.9 4.7 1.5 7.5.6 2.7 1.3 6.3 1.5 8 .3 1.6 1.2 5.7 2 9s1.9 9.4 2.5 13.5c.6 4.1 1.4 8.6 2 10 1.4 3.8 3.2 14.1 2.6 14.7-.2.3-1.9-.5-3.7-1.7-1.8-1.4-5.2-2.5-8-2.8-4.3-.4-4.9-.8-5.9-3.6-1.1-3.2-4-17-6.6-31.1-.8-4.4-1.7-8.7-2-9.5-.3-.8-1.4-6.3-2.4-12.2-1-5.9-2.1-11.1-2.4-11.6-.3-.4-.7-2.9-1-5.4-.3-2.5-2.4-13.5-4.7-24.4-2.3-11-5.2-26-6.5-33.4-1.3-7.4-2.8-14.6-3.4-16-.5-1.4-1.6-6.5-2.4-11.5-1.2-7.1-1.3-9.5-.3-11.5 1.7-3.5 7.7-6.2 16.1-7.1 3.9-.4 9.6-1.2 12.6-1.9 22.4-4.5 48.7-9.7 49.8-9.9.9-.1 1.2 5.2 1.2 23.3zm99 56.6v21h-67v-19.2c0-16.4.2-19.4 1.7-21 1.5-1.7 3.9-1.8 33.5-1.8H320v21zm63 0v21h-56v-42h56v21zm96.8-19.8c.9.9 1.2 6.9 1.2 21V186h-91v-42h44.3c33.1 0 44.6.3 45.5 1.2zM221 206.1c0 11.5-.4 20.8-.8 20.5-.4-.2-4.6.4-9.3 1.4-4.6 1-10 2.1-11.9 2.5-1.9.3-4.7.8-6.1 1.1-2.4.5-2.7.1-3.9-4.3-2.1-8.3-4.1-18.6-4.2-21.3 0-.8-.6-4-1.3-7.1l-1.3-5.6 12.2-2.7c12.1-2.7 24.5-5.3 25.9-5.5.4-.1.7 9.4.7 21zm99 5.4V229h-67v-35h67v17.5zm63 0V229h-56v-35h56v17.5zm98 0V229h-91v-35h91v17.5zm-260 41v16.4l-4.2 1.1c-2.4.6-5.6 1.5-7.3 2-1.6.4-4.9 1.1-7.1 1.4-4.5.6-4.6.4-5.9-7.9-.2-1.1-1.1-5.4-2-9.5-.9-4.1-1.8-9.1-2-11-.4-3.3-.1-3.6 2.3-3.8 1.5-.2 7.2-1.4 12.7-2.7 15-3.5 13.5-5.1 13.5 14zm99 1.5v17h-67v-34h67v17zm63 0v17h-56v-34h56v17zm98 0v17h-91v-34h91v17zM38.6 270.2c6.5 12.8 23.9 31.5 38.7 41.6 14.9 10.2 36.5 18.8 56.2 22.3 4 .7 15.8 1.3 27.5 1.3l20.5.1-.1-24.3c0-13.3.1-24.2.3-24.2.3 0 43.8 31.3 52.8 38 2.8 2 8.8 6.5 13.5 9.8 4.7 3.4 16 11.6 25.3 18.3 9.2 6.6 16.7 12.7 16.7 13.5 0 1.2-8.2 7.8-18.5 15-1.6 1.1-8.2 5.8-14.6 10.5-41.9 30.4-74.1 53.4-74.9 53.7-.6.2-1-8.9-1-25v-25.3h-20.7c-18.1-.1-22-.4-29.8-2.3-23.4-5.8-39-13.3-54.7-26.3-23.3-19.3-38.1-46.5-40.7-74.6-1-10.8-.4-25.3 1-25.3.5 0 1.6 1.5 2.5 3.2zM320 296.5V314h-67v-35h67v17.5zm63 0V314h-56v-35h56v17.5zm98 0V314h-91v-35h91v17.5zm-260-6.4c0 8.7-.2 10-1.5 9.5-3.2-1.2-19.4-13.1-19.5-14.3 0-1.2 5.9-3.3 9.5-3.3 1.1 0 2.7-.5 3.5-1 .8-.5 3-1 4.8-1h3.2v10.1zm99 52.9v21h-18l-1.9-3.8c-2.8-5.3-5.4-7.5-27.1-22.7-10.7-7.5-19.6-14-19.8-14.6-.2-.5 12.5-.9 33.2-.9H320v21zm63 0v21h-56v-42h56v21zm98-1.2c0 14.1-.3 20.1-1.2 21-.9.9-12.4 1.2-45.5 1.2H390v-42h91v19.8zm-78 55.1c-.8.5-3.5 1.2-6 1.6-2.5.3-5.8 1-7.5 1.5-1.6.5-4.6 1.2-6.5 1.5-1.9.3-4.6.8-6 1-4 .8-6.1 1.2-13 2.5-3.6.6-9.4 1.8-13 2.6-3.6.7-9.6 1.8-13.5 2.4-3.8.6-10.1 1.8-14 2.7-13.2 2.9-19 4.1-27 5.7-4.4.9-11.4 2.4-15.5 3.3-4.1.9-8.1 1.6-9 1.6-.8-.1-3.1.3-5 .8-15.3 3.7-26.9 6-31.9 6.3-3.5.3-4 0-4.6-2.3-.5-1.9-.2-2.9 1.2-3.9 26.4-19 24.7-18 33.1-19.2 12.4-1.8 18.6-3 32.2-5.9l13.5-2.9 47-.1c26.6 0 46.3.3 45.5.8z"/><path d="M287.1 94.4c-.8.9-1.1 5.7-.9 14.7l.3 13.4h38l.3-13.4c.2-9-.1-13.8-.9-14.7-1.7-2-35.1-2-36.8 0zM348.1 94.4c-.8.9-1.1 5.7-.9 14.7l.3 13.4 17.9.3c12.3.2 18.3-.1 19.2-.9 1.9-1.5 2-25.9.2-27.7-1.8-1.8-35.2-1.7-36.7.2z"/>
</svg>