<svg id="i-quotation" version="1.0" xmlns="http://www.w3.org/2000/svg" viewBox="0 0 512.000000 512.000000">

<g transform="translate(0.000000,512.000000) scale(0.100000,-0.100000)" stroke="none">
<path d="M720 5098 c-33 -17 -51 -35 -67 -68 l-23 -44 0 -1268 0 -1267 -53
-35 c-402 -268 -629 -773 -564 -1256 82 -605 538 -1064 1137 -1145 133 -18
217 -18 350 0 146 19 265 56 405 124 251 123 451 316 585 563 176 327 204 723
75 1080 -106 293 -341 561 -625 712 -287 152 -632 192 -952 111 l-28 -7 0
1096 0 1096 1915 0 1915 0 0 -2230 0 -2230 -1218 -2 -1219 -3 -36 -28 c-102
-78 -92 -223 19 -277 40 -20 64 -20 1345 -20 l1305 0 44 23 c33 16 51 34 68
67 l22 44 0 2426 0 2426 -22 44 c-17 33 -35 51 -68 68 l-44 22 -2111 0 -2111
0 -44 -22z m850 -2811 c600 -155 914 -811 660 -1374 -126 -277 -364 -473 -680
-560 -102 -28 -357 -25 -470 6 -179 48 -338 141 -466 273 -125 128 -209 276
-255 448 -31 113 -34 368 -6 470 111 404 402 680 797 755 111 21 300 13 420
-18z"/>
<path d="M1284 2246 c-54 -24 -87 -78 -93 -154 l-6 -66 -55 -12 c-216 -46
-367 -180 -388 -346 -20 -149 40 -274 171 -359 87 -56 198 -95 380 -134 89
-19 184 -42 212 -51 115 -38 161 -77 129 -109 -94 -93 -385 -99 -549 -11 -51
27 -64 40 -86 85 -41 83 -77 113 -143 119 -66 5 -107 -9 -141 -50 -38 -45 -47
-94 -30 -161 43 -166 205 -299 432 -353 l71 -17 4 -68 c4 -76 21 -108 78 -146
24 -17 47 -23 85 -23 94 0 153 62 164 172 l6 60 75 19 c154 39 281 128 335
235 27 54 30 68 30 159 0 89 -3 106 -28 157 -52 105 -180 199 -341 248 -33 11
-126 33 -206 50 -176 37 -260 65 -303 102 l-32 28 30 25 c47 39 126 59 240 60
151 0 248 -44 286 -130 11 -24 35 -57 54 -73 105 -93 265 -17 265 126 0 65
-60 171 -136 240 -64 59 -177 123 -241 137 -33 6 -33 7 -33 64 0 66 -30 134
-72 165 -35 25 -122 31 -164 12z"/>
<path d="M3711 4620 c-44 -10 -81 -39 -106 -81 -19 -32 -20 -55 -23 -326 l-3
-293 -1157 -2 c-1147 -3 -1157 -3 -1192 -24 -106 -62 -109 -202 -7 -278 28
-21 29 -21 1193 -24 l1164 -2 0 -440 0 -440 -622 0 c-586 0 -625 -2 -664 -19
-53 -24 -86 -71 -92 -130 -6 -61 16 -111 64 -147 l37 -29 639 -3 638 -2 0
-440 0 -440 -342 0 c-325 0 -344 -1 -384 -21 -97 -47 -122 -165 -51 -246 55
-62 60 -63 437 -63 l340 0 0 -282 c0 -175 4 -298 11 -323 22 -80 111 -134 190
-116 51 12 85 39 109 87 19 38 20 60 20 337 l0 297 288 0 c282 0 290 1 332 23
50 26 90 90 90 142 0 52 -40 116 -90 142 -42 22 -50 23 -332 23 l-288 0 0 440
0 440 288 0 c258 0 291 2 328 19 112 51 122 217 16 283 -36 22 -45 23 -334 26
l-298 3 0 440 0 439 291 0 c248 0 296 2 325 16 92 44 121 168 57 244 -53 64
-59 65 -380 68 l-293 3 0 287 c0 265 -1 289 -20 326 -33 68 -105 102 -179 86z"/>
</g>
</svg>
