<svg id="i-resend" viewBox="0 0 512 512"  xmlns="http://www.w3.org/2000/svg">
<path d="m360.203125 336.507812c9.523437 9.417969 14.777344 21.960938 14.796875 35.320313s-5.199219 25.914063-14.695312 35.359375l-37.203126 36.992188c-3.902343 3.882812-9 5.820312-14.101562 5.820312-5.136719 0-10.273438-1.96875-14.183594-5.898438-7.789062-7.832031-7.75-20.492187.082032-28.28125l24.933593-24.796874h-113.34375c-22.324219 0-40.488281 18.164062-40.488281 40.488281s17.945312 40.488281 40 40.488281c11.046875 0 20 8.953125 20 20s-8.953125 20-20 20c-21.511719 0-41.664062-8.398438-56.75-23.652344-14.992188-15.164062-23.25-35.347656-23.25-56.835937 0-44.382813 36.105469-80.488281 80.488281-80.488281h111.507813l-23.058594-22.800782c-7.855469-7.769531-7.925781-20.433594-.160156-28.285156 7.765625-7.855469 20.429687-7.925781 28.285156-.15625zm151.796875-256.507812v131c0 11.046875-8.953125 20-20 20s-20-8.953125-20-20v-125.363281l-173.753906 108.042969c-13.03125 8.101562-27.636719 12.152343-42.246094 12.152343s-29.214844-4.050781-42.242188-12.152343l-173.757812-108.042969v225.363281c0 22.054688 17.945312 40 40 40 11.046875 0 20 8.953125 20 20s-8.953125 20-20 20c-44.113281 0-80-35.886719-80-80v-231c0-44.113281 35.886719-80 80-80h352c44.113281 0 80 35.886719 80 80zm-55.675781-31.722656c-6.746094-5.183594-15.175781-8.277344-24.324219-8.277344h-352c-9.148438 0-17.582031 3.09375-24.324219 8.277344l179.203125 111.433594c13.027344 8.101562 29.214844 8.101562 42.246094 0zm35.675781 242.722656c-11.046875 0-20 8.953125-20 20 0 22.054688-17.945312 40-40 40-11.046875 0-20 8.953125-20 20s8.953125 20 20 20c44.113281 0 80-35.886719 80-80 0-11.046875-8.953125-20-20-20zm0 0"/>
</svg>