<svg id="i-spreadsheet-details" version="1.0" xmlns="http://www.w3.org/2000/svg" viewBox="0 0 1509.000000 1509.000000">

<g transform="translate(0.000000,1509.000000) scale(0.100000,-0.100000)" stroke="none">
<path d="M310 15053 c-148 -74 -270 -237 -299 -397 -8 -42 -11 -1912 -11
-6290 0 -5518 2 -6238 15 -6295 23 -98 80 -196 156 -272 37 -36 69 -74 71 -85
2 -12 25 -27 68 -43 l65 -26 6277 -5 6278 -5 777 -776 c428 -427 794 -785 813
-797 49 -28 156 -62 199 -62 82 0 187 48 254 115 116 116 138 307 51 447 -14
24 -255 273 -535 553 -280 281 -509 514 -509 518 0 4 143 7 318 7 354 0 370 2
495 68 121 63 210 167 266 311 l26 66 3 6250 c2 4467 0 6269 -8 6315 -27 161
-149 327 -294 400 l-70 35 -7165 2 -7166 3 -75 -37z m5990 -1273 l0 -850
-1795 0 -1795 0 0 850 0 850 1795 0 1795 0 0 -850z m4100 0 l0 -850 -1810 0
-1810 0 0 850 0 850 1810 0 1810 0 0 -850z m4171 837 c39 -30 39 -32 39 -871
l0 -816 -1860 0 -1860 0 0 850 0 850 1833 0 c1424 -1 1836 -3 1848 -13z
m-12341 -3062 l0 -885 -875 0 -875 0 0 885 0 885 875 0 875 0 0 -885z m4070 0
l0 -885 -1795 0 -1795 0 0 885 0 885 1795 0 1795 0 0 -885z m4100 0 l0 -885
-1810 0 -1810 0 0 885 0 885 1810 0 1810 0 0 -885z m4210 0 l0 -885 -1860 0
-1860 0 0 885 0 885 1860 0 1860 0 0 -885z m-12382 -2272 l-3 -908 -870 0
-870 0 -3 908 -2 907 875 0 875 0 -2 -907z m4067 -3 l0 -905 -1790 0 -1790 0
-3 908 -2 907 1792 -2 1793 -3 0 -905z m4105 186 l0 -724 -72 20 c-101 26
-315 60 -563 89 -238 27 -690 -16 -1010 -97 -185 -47 -404 -121 -530 -179
-135 -63 -260 -127 -317 -161 l-63 -39 -532 -3 -533 -3 0 911 0 910 1810 0
1810 0 0 -724z m4205 -186 l0 -905 -1670 0 -1670 0 -75 46 c-41 26 -126 70
-187 99 l-113 53 0 809 0 808 1858 -2 1857 -3 0 -905z m-12375 -2225 l0 -835
-875 0 -875 0 0 835 0 835 875 0 875 0 0 -835z m4070 0 l0 -835 -1795 0 -1795
0 0 835 0 835 1795 0 1795 0 0 -835z m894 813 c-10 -13 -60 -68 -110 -123 -50
-55 -139 -164 -198 -243 l-106 -143 0 265 0 266 217 0 216 0 -19 -22z m3206
-813 l0 -835 -1670 0 c-918 0 -1670 1 -1670 3 0 1 9 29 19 62 210 675 667
1224 1286 1547 l110 57 963 1 962 0 0 -835z m4210 0 l0 -835 -904 0 -904 0
-20 83 c-51 205 -79 295 -157 492 -45 116 -150 322 -234 460 -126 208 -272
397 -460 598 l-35 37 1357 0 1357 0 0 -835z m-3515 559 c383 -284 683 -669
857 -1099 26 -65 98 -274 98 -286 0 -5 -234 -9 -580 -9 l-580 0 0 765 0 766
48 -27 c26 -15 97 -65 157 -110z m-8865 -2674 l0 -790 -875 0 -875 0 0 790 0
790 875 0 875 0 0 -790z m4016 774 c-20 -52 0 -472 30 -639 13 -70 17 -182 21
-507 l5 -418 -1796 0 -1796 0 0 790 0 790 1771 0 c1634 0 1771 -1 1765 -16z
m4154 -774 l0 -790 -1513 0 -1513 0 -46 78 c-233 388 -358 852 -358 1328 0 78
3 149 6 158 6 15 166 16 1715 16 l1709 0 0 -790z m1742 688 c6 -110 -13 -398
-32 -513 -25 -145 -77 -342 -119 -450 -17 -44 -31 -84 -31 -88 0 -17 -134
-286 -176 -354 l-45 -73 -425 0 -424 0 0 790 0 790 624 0 623 0 5 -102z m2468
-688 l0 -790 -1019 0 -1020 0 51 123 c27 67 53 133 58 147 138 422 178 652
187 1063 l6 247 868 0 869 0 0 -790z m-12380 -2045 l0 -765 -853 0 -854 0 -19
21 c-18 20 -19 50 -22 765 l-2 744 875 0 875 0 0 -765z m4068 3 l-3 -763
-1792 -3 -1793 -2 0 765 0 765 1795 0 1795 0 -2 -762z m609 649 c228 -311 581
-632 924 -840 114 -69 379 -206 454 -234 242 -93 541 -179 705 -202 41 -6 127
-19 190 -28 139 -21 583 -23 725 -4 172 23 281 41 388 65 l107 23 0 -98 0 -99
-1810 0 -1810 0 0 765 0 765 23 0 c16 -1 42 -28 104 -113z m3493 -171 l0 -283
-42 -16 c-81 -29 -290 -78 -421 -99 -194 -30 -566 -30 -762 1 -156 24 -364 75
-470 116 -38 14 -90 33 -114 42 -70 24 -267 124 -380 192 -122 74 -280 191
-368 273 l-62 58 1309 0 1310 0 0 -284z m880 233 c-75 -68 -229 -186 -317
-242 l-73 -47 0 170 0 170 223 0 222 -1 -55 -50z m3328 -693 c-3 -715 -4 -745
-22 -765 -19 -21 -23 -21 -565 -21 l-546 0 -662 662 c-365 365 -663 666 -663
671 0 4 32 50 71 102 l71 95 1159 0 1159 0 -2 -744z m-2583 -376 c220 -221
402 -403 404 -405 2 -3 -343 -5 -767 -5 l-772 0 0 184 0 184 143 71 c179 90
331 182 472 288 61 45 112 82 115 82 3 1 185 -179 405 -399z"/>
</g>
</svg>
