<svg id="i-verify" viewBox="0 0 512 512" xmlns="http://www.w3.org/2000/svg">
  <g>
  <path d="m307.04 334.759-14.721-14.721-21.213 21.213 35.934 35.934 62.721-62.722-21.213-21.213z"/>
  <path d="m489.339 435.181-66.182-66.182c16.529-42.481 3.962-94.644-33.637-124.575v-187.424h-78.5v-36h-57.671l-28.963-21h-49.474l-30.963 21h-55.93v36h-78.5v455h380v-49.361l36.181 36.181c8.772 8.772 20.296 13.159 31.819 13.159 39.522.268 60.149-48.604 31.82-76.798zm-112.398-48.759c-78.067 71.859-184.867-34.976-113.015-113.016 15.579-15.579 36.044-23.368 56.507-23.368 70.193-.471 106.813 86.308 56.508 136.384zm-258.922-335.422h35.144l30.964-21h30.526l28.963 21h37.403v36h-163zm241.5 431h-320v-395h48.5v30h223v-30h48.5v140.191c-110.079-40.531-199.592 95.103-116.805 180.445 31.364 31.235 76.812 40.011 116.804 25.002l.001.001zm108.607-4.394c-5.584 5.819-15.629 5.819-21.213 0 0 0-60.092-60.092-60.092-60.092 7.874-5.945 15.268-13.338 21.213-21.213l60.092 60.092c5.819 5.583 5.819 15.631 0 21.213z"/>
  <path d="m69.519 158h182v30h-182z"/>
  <path d="m69.519 218h120v30h-120z"/>
  <path d="m69.519 278h78v30h-78z"/>
  <path d="m69.519 338h99v30h-99z"/>
  <path d="m69.519 398h120v30h-120z"/>
  </g>
</svg>